<svg width="271" height="271" viewBox="0 0 271 271" fill="none" xmlns="http://www.w3.org/2000/svg">
<path d="M135.2 267.45C207.936 267.45 266.9 208.486 266.9 135.75C266.9 63.0141 207.936 4.04999 135.2 4.04999C62.4641 4.04999 3.5 63.0141 3.5 135.75C3.5 208.486 62.4641 267.45 135.2 267.45Z" fill="white" stroke="#231F20" stroke-width="7" stroke-miterlimit="10"/>
<path d="M247.21 105.54H23.2V165.95H247.21V105.54Z" fill="white"/>
<path d="M35.735 114.105H47.615V122.575L54.545 114.105H68.9L55.975 130.88L69.56 150.79H55.425L47.615 139.46V150.79H35.735V114.105ZM42.665 146.39V138.965L48.385 131.87L58.395 146.39H60.1L49.375 130.715L59.22 118.505H57.46L42.665 136.765V118.505H41.235V146.39H42.665ZM64.6121 132.475C64.6121 129.835 65.1071 127.342 66.0971 124.995C67.1238 122.648 68.4988 120.613 70.2221 118.89C71.9821 117.13 74.0355 115.755 76.3821 114.765C78.7288 113.738 81.2221 113.225 83.8621 113.225C86.5021 113.225 88.9955 113.738 91.3421 114.765C93.6888 115.755 95.7238 117.13 97.4471 118.89C99.2071 120.613 100.582 122.648 101.572 124.995C102.599 127.342 103.112 129.835 103.112 132.475C103.112 135.115 102.599 137.608 101.572 139.955C100.582 142.302 99.2071 144.355 97.4471 146.115C95.7238 147.838 93.6888 149.213 91.3421 150.24C88.9955 151.23 86.5021 151.725 83.8621 151.725C81.2221 151.725 78.7288 151.23 76.3821 150.24C74.0355 149.213 71.9821 147.838 70.2221 146.115C68.4988 144.355 67.1238 142.302 66.0971 139.955C65.1071 137.608 64.6121 135.115 64.6121 132.475ZM69.7821 132.475C69.7821 134.418 70.1488 136.252 70.8821 137.975C71.6155 139.662 72.6238 141.147 73.9071 142.43C75.1905 143.713 76.6755 144.722 78.3621 145.455C80.0855 146.188 81.9188 146.555 83.8621 146.555C85.8055 146.555 87.6205 146.188 89.3071 145.455C91.0305 144.722 92.5338 143.713 93.8171 142.43C95.1005 141.147 96.1088 139.662 96.8421 137.975C97.5755 136.252 97.9421 134.418 97.9421 132.475C97.9421 130.532 97.5755 128.717 96.8421 127.03C96.1088 125.307 95.1005 123.803 93.8171 122.52C92.5338 121.237 91.0305 120.228 89.3071 119.495C87.6205 118.762 85.8055 118.395 83.8621 118.395C81.9188 118.395 80.0855 118.762 78.3621 119.495C76.6755 120.228 75.1905 121.237 73.9071 122.52C72.6238 123.803 71.6155 125.307 70.8821 127.03C70.1488 128.717 69.7821 130.532 69.7821 132.475ZM76.1621 132.475C76.1621 133.538 76.3638 134.547 76.7671 135.5C77.1705 136.417 77.7205 137.223 78.4171 137.92C79.1138 138.617 79.9205 139.167 80.8371 139.57C81.7905 139.973 82.7988 140.175 83.8621 140.175C84.9255 140.175 85.9155 139.973 86.8321 139.57C87.7855 139.167 88.6105 138.617 89.3071 137.92C90.0038 137.223 90.5538 136.417 90.9571 135.5C91.3605 134.547 91.5621 133.538 91.5621 132.475C91.5621 131.412 91.3605 130.422 90.9571 129.505C90.5538 128.552 90.0038 127.727 89.3071 127.03C88.6105 126.333 87.7855 125.783 86.8321 125.38C85.9155 124.977 84.9255 124.775 83.8621 124.775C82.7988 124.775 81.7905 124.977 80.8371 125.38C79.9205 125.783 79.1138 126.333 78.4171 127.03C77.7205 127.727 77.1705 128.552 76.7671 129.505C76.3638 130.422 76.1621 131.412 76.1621 132.475ZM83.8621 145.125C82.1021 145.125 80.4521 144.795 78.9121 144.135C77.4088 143.475 76.0705 142.577 74.8971 141.44C73.7605 140.267 72.8621 138.928 72.2021 137.425C71.5421 135.885 71.2121 134.235 71.2121 132.475C71.2121 130.715 71.5421 129.083 72.2021 127.58C72.8621 126.04 73.7605 124.702 74.8971 123.565C76.0705 122.392 77.4088 121.475 78.9121 120.815C80.4521 120.155 82.1021 119.825 83.8621 119.825C85.6221 119.825 87.2538 120.155 88.7571 120.815C90.2971 121.475 91.6355 122.392 92.7721 123.565C93.9455 124.702 94.8621 126.04 95.5221 127.58C96.1821 129.083 96.5121 130.715 96.5121 132.475C96.5121 134.235 96.1821 135.885 95.5221 137.425C94.8621 138.928 93.9455 140.267 92.7721 141.44C91.6355 142.577 90.2971 143.475 88.7571 144.135C87.2538 144.795 85.6221 145.125 83.8621 145.125ZM117.59 138.03C119.02 138.03 120.413 137.883 121.77 137.59L126.995 146.39H128.7L123.2 137.15C125.18 136.453 126.757 135.39 127.93 133.96C129.103 132.493 129.69 130.605 129.69 128.295C129.69 126.682 129.378 125.27 128.755 124.06C128.132 122.85 127.27 121.842 126.17 121.035C125.107 120.192 123.842 119.568 122.375 119.165C120.908 118.725 119.313 118.505 117.59 118.505H111.65V146.39H113.08V138.03H117.59ZM113.08 136.71V119.825H117.59C120.927 119.825 123.53 120.558 125.4 122.025C127.307 123.492 128.26 125.582 128.26 128.295C128.26 131.008 127.307 133.098 125.4 134.565C123.53 135.995 120.927 136.71 117.59 136.71H113.08ZM106.15 114.105H118.8C121.147 114.105 123.31 114.417 125.29 115.04C127.307 115.663 129.048 116.58 130.515 117.79C131.982 119 133.118 120.503 133.925 122.3C134.768 124.06 135.19 126.095 135.19 128.405C135.19 130.238 134.933 131.797 134.42 133.08C133.907 134.363 133.338 135.427 132.715 136.27C131.982 137.223 131.157 138.03 130.24 138.69L137.115 150.79H123.365L117.865 141.495V150.79H106.15V114.105ZM117.865 132.145H118.47C119.863 132.145 121.037 131.833 121.99 131.21C122.98 130.587 123.475 129.542 123.475 128.075C123.475 126.608 122.98 125.563 121.99 124.94C121.037 124.317 119.863 124.005 118.47 124.005H117.865V132.145Z" fill="#ED1C24"/>
<path d="M138.215 114.105H159.83V123.73H149.93V127.8H159.665V136.93H149.93V141.165H160.215V150.79H138.215V114.105ZM156.145 146.39V145.07H145.145V133.025H155.595V131.705H145.145V119.825H156.145V118.505H143.715V146.39H156.145ZM174.94 114.105H183.74L197.655 150.79H186.105L184.895 147.49H173.785L172.575 150.79H161.025L174.94 114.105ZM181.815 139.405L179.34 132.97L176.865 139.405H181.815ZM169.22 146.39L170.265 143.64H188.415L189.46 146.39H191L180.385 118.505H178.295L167.68 146.39H169.22ZM179.34 119.825L187.92 142.32H170.76L179.34 119.825ZM199.183 123.73H192.418V114.105H218.048V123.73H211.283V150.79H199.183V123.73ZM205.948 146.39V119.825H213.813V118.505H196.653V119.825H204.518V146.39H205.948ZM224.131 146.005C224.644 146.115 225.194 146.207 225.781 146.28C226.294 146.353 226.826 146.427 227.376 146.5C227.962 146.537 228.549 146.555 229.136 146.555C230.162 146.555 231.152 146.445 232.106 146.225C233.096 145.968 233.976 145.565 234.746 145.015C235.516 144.465 236.121 143.768 236.561 142.925C237.037 142.045 237.276 140.982 237.276 139.735C237.276 138.672 237.001 137.663 236.451 136.71C235.937 135.757 235.259 134.84 234.416 133.96C233.609 133.08 232.729 132.237 231.776 131.43C230.859 130.623 229.979 129.817 229.136 129.01C228.329 128.167 227.651 127.342 227.101 126.535C226.587 125.692 226.331 124.83 226.331 123.95C226.331 122.63 226.752 121.622 227.596 120.925C228.439 120.192 229.796 119.825 231.666 119.825C231.959 119.825 232.252 119.843 232.546 119.88C232.876 119.88 233.187 119.898 233.481 119.935C233.774 119.972 234.067 119.99 234.361 119.99V118.56C234.104 118.56 233.829 118.542 233.536 118.505C233.279 118.468 232.986 118.45 232.656 118.45C232.362 118.413 232.051 118.395 231.721 118.395C229.741 118.395 228.109 118.853 226.826 119.77C225.542 120.65 224.901 122.043 224.901 123.95C224.901 124.977 225.157 125.948 225.671 126.865C226.221 127.745 226.899 128.625 227.706 129.505C228.549 130.348 229.429 131.173 230.346 131.98C231.299 132.787 232.179 133.612 232.986 134.455C233.829 135.262 234.507 136.105 235.021 136.985C235.571 137.865 235.846 138.782 235.846 139.735C235.846 141.495 235.241 142.833 234.031 143.75C232.857 144.667 231.226 145.125 229.136 145.125C227.889 145.125 226.752 145.033 225.726 144.85C225.176 144.777 224.644 144.685 224.131 144.575V146.005ZM219.511 139.405C220.317 139.662 221.161 139.863 222.041 140.01C222.774 140.193 223.599 140.34 224.516 140.45C225.469 140.56 226.422 140.615 227.376 140.615C229.062 140.615 229.906 139.992 229.906 138.745C229.906 138.268 229.649 137.792 229.136 137.315C228.622 136.802 227.962 136.252 227.156 135.665C226.386 135.042 225.542 134.363 224.626 133.63C223.746 132.897 222.902 132.053 222.096 131.1C221.326 130.147 220.684 129.083 220.171 127.91C219.657 126.7 219.401 125.325 219.401 123.785C219.401 122.062 219.712 120.54 220.336 119.22C220.959 117.9 221.821 116.8 222.921 115.92C224.021 115.04 225.304 114.38 226.771 113.94C228.274 113.463 229.869 113.225 231.556 113.225C232.436 113.225 233.316 113.28 234.196 113.39C235.076 113.463 235.864 113.537 236.561 113.61C237.367 113.72 238.156 113.83 238.926 113.94V124.225C238.632 124.188 238.302 124.152 237.936 124.115C237.642 124.078 237.312 124.042 236.946 124.005C236.579 123.968 236.194 123.95 235.791 123.95C235.571 123.95 235.296 123.968 234.966 124.005C234.636 124.005 234.324 124.042 234.031 124.115C233.737 124.188 233.481 124.317 233.261 124.5C233.041 124.683 232.931 124.94 232.931 125.27C232.931 125.563 233.169 125.93 233.646 126.37C234.159 126.81 234.764 127.323 235.461 127.91C236.194 128.497 236.982 129.175 237.826 129.945C238.706 130.715 239.494 131.595 240.191 132.585C240.924 133.575 241.529 134.693 242.006 135.94C242.519 137.187 242.776 138.58 242.776 140.12C242.776 141.733 242.519 143.255 242.006 144.685C241.492 146.078 240.686 147.307 239.586 148.37C238.522 149.397 237.147 150.203 235.461 150.79C233.774 151.413 231.776 151.725 229.466 151.725C228.072 151.725 226.771 151.652 225.561 151.505C224.387 151.395 223.342 151.248 222.426 151.065C221.362 150.882 220.391 150.662 219.511 150.405V139.405Z" fill="#2E3192"/>
</svg>
