<svg width="181" height="34" viewBox="0 0 181 34" fill="none" xmlns="http://www.w3.org/2000/svg">
<path d="M0.0700147 0.993992H10.438V8.38599L16.486 0.993992H29.014L17.734 15.634L29.59 33.01H17.254L10.438 23.122V33.01H0.0700147V0.993992ZM6.11802 29.17V22.69L11.11 16.498L19.846 29.17H21.334L11.974 15.49L20.566 4.83399H19.03L6.11802 20.77V4.83399H4.87001V29.17H6.11802ZM25.2719 17.026C25.2719 14.722 25.7039 12.546 26.5679 10.498C27.4639 8.44999 28.6639 6.67399 30.1679 5.16999C31.7039 3.63399 33.4959 2.43399 35.5439 1.56999C37.5919 0.673993 39.7679 0.225993 42.0719 0.225993C44.3759 0.225993 46.5519 0.673993 48.5999 1.56999C50.6479 2.43399 52.4239 3.63399 53.9279 5.16999C55.4639 6.67399 56.6639 8.44999 57.5279 10.498C58.4239 12.546 58.8719 14.722 58.8719 17.026C58.8719 19.33 58.4239 21.506 57.5279 23.554C56.6639 25.602 55.4639 27.394 53.9279 28.93C52.4239 30.434 50.6479 31.634 48.5999 32.53C46.5519 33.394 44.3759 33.826 42.0719 33.826C39.7679 33.826 37.5919 33.394 35.5439 32.53C33.4959 31.634 31.7039 30.434 30.1679 28.93C28.6639 27.394 27.4639 25.602 26.5679 23.554C25.7039 21.506 25.2719 19.33 25.2719 17.026ZM29.7839 17.026C29.7839 18.722 30.1039 20.322 30.7439 21.826C31.3839 23.298 32.2639 24.594 33.3839 25.714C34.5039 26.834 35.7999 27.714 37.2719 28.354C38.7759 28.994 40.3759 29.314 42.0719 29.314C43.7679 29.314 45.3519 28.994 46.8239 28.354C48.3279 27.714 49.6399 26.834 50.7599 25.714C51.8799 24.594 52.7599 23.298 53.3999 21.826C54.0399 20.322 54.3599 18.722 54.3599 17.026C54.3599 15.33 54.0399 13.746 53.3999 12.274C52.7599 10.77 51.8799 9.45799 50.7599 8.33799C49.6399 7.21799 48.3279 6.33799 46.8239 5.69799C45.3519 5.05799 43.7679 4.73799 42.0719 4.73799C40.3759 4.73799 38.7759 5.05799 37.2719 5.69799C35.7999 6.33799 34.5039 7.21799 33.3839 8.33799C32.2639 9.45799 31.3839 10.77 30.7439 12.274C30.1039 13.746 29.7839 15.33 29.7839 17.026ZM35.3519 17.026C35.3519 17.954 35.5279 18.834 35.8799 19.666C36.2319 20.466 36.7119 21.17 37.3199 21.778C37.9279 22.386 38.6319 22.866 39.4319 23.218C40.2639 23.57 41.1439 23.746 42.0719 23.746C42.9999 23.746 43.8639 23.57 44.6639 23.218C45.4959 22.866 46.2159 22.386 46.8239 21.778C47.4319 21.17 47.9119 20.466 48.2639 19.666C48.6159 18.834 48.7919 17.954 48.7919 17.026C48.7919 16.098 48.6159 15.234 48.2639 14.434C47.9119 13.602 47.4319 12.882 46.8239 12.274C46.2159 11.666 45.4959 11.186 44.6639 10.834C43.8639 10.482 42.9999 10.306 42.0719 10.306C41.1439 10.306 40.2639 10.482 39.4319 10.834C38.6319 11.186 37.9279 11.666 37.3199 12.274C36.7119 12.882 36.2319 13.602 35.8799 14.434C35.5279 15.234 35.3519 16.098 35.3519 17.026ZM42.0719 28.066C40.5359 28.066 39.0959 27.778 37.7519 27.202C36.4399 26.626 35.2719 25.842 34.2479 24.85C33.2559 23.826 32.4719 22.658 31.8959 21.346C31.3199 20.002 31.0319 18.562 31.0319 17.026C31.0319 15.49 31.3199 14.066 31.8959 12.754C32.4719 11.41 33.2559 10.242 34.2479 9.24999C35.2719 8.22599 36.4399 7.42599 37.7519 6.84999C39.0959 6.27399 40.5359 5.98599 42.0719 5.98599C43.6079 5.98599 45.0319 6.27399 46.3439 6.84999C47.6879 7.42599 48.8559 8.22599 49.8479 9.24999C50.8719 10.242 51.6719 11.41 52.2479 12.754C52.8239 14.066 53.1119 15.49 53.1119 17.026C53.1119 18.562 52.8239 20.002 52.2479 21.346C51.6719 22.658 50.8719 23.826 49.8479 24.85C48.8559 25.842 47.6879 26.626 46.3439 27.202C45.0319 27.778 43.6079 28.066 42.0719 28.066ZM71.5071 21.874C72.7551 21.874 73.9711 21.746 75.1551 21.49L79.7151 29.17H81.2031L76.4031 21.106C78.1311 20.498 79.5071 19.57 80.5311 18.322C81.5551 17.042 82.0671 15.394 82.0671 13.378C82.0671 11.97 81.7951 10.738 81.2511 9.68199C80.7071 8.62599 79.9551 7.74599 78.9951 7.04199C78.0671 6.30599 76.9631 5.76199 75.6831 5.40999C74.4031 5.02599 73.0111 4.83399 71.5071 4.83399H66.3231V29.17H67.5711V21.874H71.5071ZM67.5711 20.722V5.98599H71.5071C74.4191 5.98599 76.6911 6.62599 78.3231 7.90599C79.9871 9.18599 80.8191 11.01 80.8191 13.378C80.8191 15.746 79.9871 17.57 78.3231 18.85C76.6911 20.098 74.4191 20.722 71.5071 20.722H67.5711ZM61.5231 0.993992H72.5631C74.6111 0.993992 76.4991 1.26599 78.2271 1.80999C79.9871 2.35399 81.5071 3.15399 82.7871 4.20999C84.0671 5.26599 85.0591 6.57799 85.7631 8.14599C86.4991 9.68199 86.8671 11.458 86.8671 13.474C86.8671 15.074 86.6431 16.434 86.1951 17.554C85.7471 18.674 85.2511 19.602 84.7071 20.338C84.0671 21.17 83.3471 21.874 82.5471 22.45L88.5471 33.01H76.5471L71.7471 24.898V33.01H61.5231V0.993992ZM71.7471 16.738H72.2751C73.4911 16.738 74.5151 16.466 75.3471 15.922C76.2111 15.378 76.6431 14.466 76.6431 13.186C76.6431 11.906 76.2111 10.994 75.3471 10.45C74.5151 9.90599 73.4911 9.63399 72.2751 9.63399H71.7471V16.738Z" fill="#ED1C24"/>
<path d="M89.5075 0.993992H108.372V9.39399H99.7315V12.946H108.228V20.914H99.7315V24.61H108.708V33.01H89.5075V0.993992ZM105.156 29.17V28.018H95.5555V17.506H104.676V16.354H95.5555V5.98599H105.156V4.83399H94.3075V29.17H105.156ZM121.558 0.993992H129.238L141.382 33.01H131.302L130.246 30.13H120.55L119.494 33.01H109.414L121.558 0.993992ZM127.558 23.074L125.398 17.458L123.238 23.074H127.558ZM116.566 29.17L117.478 26.77H133.318L134.23 29.17H135.574L126.31 4.83399H124.486L115.222 29.17H116.566ZM125.398 5.98599L132.886 25.618H117.91L125.398 5.98599ZM142.716 9.39399H136.812V0.993992H159.18V9.39399H153.276V33.01H142.716V9.39399ZM148.62 29.17V5.98599H155.484V4.83399H140.508V5.98599H147.372V29.17H148.62ZM164.488 28.834C164.936 28.93 165.416 29.01 165.928 29.074C166.376 29.138 166.84 29.202 167.32 29.266C167.832 29.298 168.344 29.314 168.856 29.314C169.752 29.314 170.616 29.218 171.448 29.026C172.312 28.802 173.08 28.45 173.752 27.97C174.424 27.49 174.952 26.882 175.336 26.146C175.752 25.378 175.96 24.45 175.96 23.362C175.96 22.434 175.72 21.554 175.24 20.722C174.792 19.89 174.2 19.09 173.464 18.322C172.76 17.554 171.992 16.818 171.16 16.114C170.36 15.41 169.592 14.706 168.856 14.002C168.152 13.266 167.56 12.546 167.08 11.842C166.632 11.106 166.408 10.354 166.408 9.58599C166.408 8.43399 166.776 7.55399 167.512 6.94599C168.248 6.30599 169.432 5.98599 171.064 5.98599C171.32 5.98599 171.576 6.00199 171.832 6.03399C172.12 6.03399 172.392 6.04999 172.648 6.08199C172.904 6.11399 173.16 6.12999 173.416 6.12999V4.88199C173.192 4.88199 172.952 4.86599 172.696 4.83399C172.472 4.80199 172.216 4.78599 171.928 4.78599C171.672 4.75399 171.4 4.73799 171.112 4.73799C169.384 4.73799 167.96 5.13799 166.84 5.93799C165.72 6.70599 165.16 7.92199 165.16 9.58599C165.16 10.482 165.384 11.33 165.832 12.13C166.312 12.898 166.904 13.666 167.608 14.434C168.344 15.17 169.112 15.89 169.912 16.594C170.744 17.298 171.512 18.018 172.216 18.754C172.952 19.458 173.544 20.194 173.992 20.962C174.472 21.73 174.712 22.53 174.712 23.362C174.712 24.898 174.184 26.066 173.128 26.866C172.104 27.666 170.68 28.066 168.856 28.066C167.768 28.066 166.776 27.986 165.88 27.826C165.4 27.762 164.936 27.682 164.488 27.586V28.834ZM160.456 23.074C161.16 23.298 161.896 23.474 162.664 23.602C163.304 23.762 164.024 23.89 164.824 23.986C165.656 24.082 166.488 24.13 167.32 24.13C168.792 24.13 169.528 23.586 169.528 22.498C169.528 22.082 169.304 21.666 168.856 21.25C168.408 20.802 167.832 20.322 167.128 19.81C166.456 19.266 165.72 18.674 164.92 18.034C164.152 17.394 163.416 16.658 162.712 15.826C162.04 14.994 161.48 14.066 161.032 13.042C160.584 11.986 160.36 10.786 160.36 9.44199C160.36 7.93799 160.632 6.60999 161.176 5.45799C161.72 4.30599 162.472 3.34599 163.432 2.57799C164.392 1.80999 165.512 1.23399 166.792 0.849994C168.104 0.433993 169.496 0.225993 170.968 0.225993C171.736 0.225993 172.504 0.273993 173.272 0.369994C174.04 0.433993 174.728 0.497993 175.336 0.561992C176.04 0.657992 176.728 0.753993 177.4 0.849994V9.82599C177.144 9.79399 176.856 9.76199 176.536 9.72999C176.28 9.69799 175.992 9.66599 175.672 9.63399C175.352 9.60199 175.016 9.58599 174.664 9.58599C174.472 9.58599 174.232 9.60199 173.944 9.63399C173.656 9.63399 173.384 9.66599 173.128 9.72999C172.872 9.79399 172.648 9.90599 172.456 10.066C172.264 10.226 172.168 10.45 172.168 10.738C172.168 10.994 172.376 11.314 172.792 11.698C173.24 12.082 173.768 12.53 174.376 13.042C175.016 13.554 175.704 14.146 176.44 14.818C177.208 15.49 177.896 16.258 178.504 17.122C179.144 17.986 179.672 18.962 180.088 20.05C180.536 21.138 180.76 22.354 180.76 23.698C180.76 25.106 180.536 26.434 180.088 27.682C179.64 28.898 178.936 29.97 177.976 30.898C177.048 31.794 175.848 32.498 174.376 33.01C172.904 33.554 171.16 33.826 169.144 33.826C167.928 33.826 166.792 33.762 165.736 33.634C164.712 33.538 163.8 33.41 163 33.25C162.072 33.09 161.224 32.898 160.456 32.674V23.074Z" fill="#2E3192"/>
</svg>
